# xmcd CD database file
#
# Track frame offsets:
#	150
#	25812
#	47017
#	73900
#	97917
#	122377
#	150290
#	177425
#	194850
#	221190
#
# Disc length: 3670 seconds
#
# Revision: 1
# Processed by: cddbd v1.5.1PL0 Copyright (c) Steve Scherf et al.
# Submitted via: CDex 1.51
#
DISCID=8a0e540a
DTITLE=Andy Laverne - True Colors
DYEAR=1900
DGENRE=Jazz
TTITLE0=True Colors
TTITLE1=Maximum Density
TTITLE2=Song Is You
TTITLE3=Cubic Zirconia
TTITLE4=Night and Day
TTITLE5=Once I Loved
TTITLE6=I Hear A Rhapsody
TTITLE7=Pannonica
TTITLE8=If I Were A Bell
TTITLE9=In Your Own Sweet Way
EXTD=
EXTT0=
EXTT1=
EXTT2=
EXTT3=
EXTT4=
EXTT5=
EXTT6=
EXTT7=
EXTT8=
EXTT9=
PLAYORDER=
